<?xml version="1.0" encoding="iso-8859-1"?>
<!-- Generator: Adobe Illustrator 19.0.0, SVG Export Plug-In . SVG Version: 6.00 Build 0)  -->
<svg version="1.1" id="Capa_1" xmlns="http://www.w3.org/2000/svg" xmlns:xlink="http://www.w3.org/1999/xlink" x="0px" y="0px"
	 viewBox="0 0 512 512" style="enable-background:new 0 0 512 512;" xml:space="preserve">
<g>
	<path style="fill:#DDDDDD;" d="M28.448,164.007v87.861c0,4.252,3.447,7.698,7.698,7.698s7.698-3.446,7.698-7.698v-87.861
		L28.448,164.007L28.448,164.007z"/>
	<path style="fill:#DDDDDD;" d="M8.368,138.747h55.553c3.707-1.519,6.669-4.473,8.194-8.176c0.236-1.853,0.165,2.167,0.165-58.265
		c0-4.251-3.447-7.698-7.698-7.698s-7.698,3.447-7.698,7.698v55.838c0,2.098-1.707,3.805-3.804,3.805h-9.237v-61.56
		c0-4.251-3.447-7.698-7.698-7.698s-7.698,3.447-7.698,7.698v61.56h-9.236c-2.098,0-3.805-1.707-3.805-3.805V72.306
		c0-4.251-3.447-7.698-7.698-7.698S0.01,68.055,0.01,72.306c0,60.374-0.071,56.414,0.165,58.265
		C1.7,134.274,4.662,137.228,8.368,138.747z"/>
	<path style="fill:#DDDDDD;" d="M57.664,137.424H14.626c-8.072,0-14.616-6.544-14.616-14.616v27.609
		c0,8.072,6.544,14.616,14.616,14.616h43.038c8.072,0,14.616-6.544,14.616-14.616v-27.609
		C72.28,130.88,65.736,137.424,57.664,137.424z"/>
</g>
<g>
	<path style="fill:#BABABA;" d="M15.663,150.417v-12.993c-9.955,0-15.653-7.057-15.653-14.616v27.609
		c0,8.072,6.544,14.616,14.616,14.616h15.653C22.207,165.034,15.663,158.49,15.663,150.417z"/>
	<path style="fill:#BABABA;" d="M252.838,145.044c-69.836,0-126.652,56.816-126.652,126.652
		c0,69.837,56.816,126.653,126.652,126.653S379.49,341.533,379.49,271.696S322.674,145.044,252.838,145.044z"/>
</g>
<path style="fill:#989DA0;" d="M147.819,271.695c0-66.192,51.044-120.678,115.836-126.185
	c-74.38-6.323-137.468,52.566-137.468,126.185c0,73.76,63.243,132.506,137.468,126.186
	C198.863,392.375,147.819,337.889,147.819,271.695z"/>
<path style="fill:#DDDDDD;" d="M252.838,431.969c-88.375,0-160.274-71.899-160.274-160.274s71.899-160.274,160.274-160.274
	s160.274,71.899,160.274,160.274S341.213,431.969,252.838,431.969z M252.838,146.07c-69.269,0-125.626,56.356-125.626,125.625
	c0,69.271,56.356,125.627,125.626,125.627c69.271,0,125.626-56.356,125.626-125.627C378.464,202.426,322.108,146.07,252.838,146.07z
	"/>
<path style="fill:#BABABA;" d="M113.092,271.695c0-84.927,66.4-154.625,150.01-159.936
	c-92.729-5.887-170.538,67.946-170.538,159.936c0,91.938,77.754,165.823,170.538,159.936
	C179.492,426.32,113.092,356.621,113.092,271.695z"/>
<path style="fill:#EA473B;" d="M287.284,224.986c-12.867,0.012-24.071,7.077-29.983,17.531l-0.002-0.003
	c-2.536,3.141-6.427,3.133-8.956,0.009l-0.005,0.002c-5.934-10.441-17.152-17.482-30.02-17.469
	c-19.043,0.018-34.466,15.473-34.445,34.517c0.056,55.839,69.052,85.527,69.052,85.527s68.937-29.828,68.881-85.666
	C321.786,240.389,306.33,224.967,287.284,224.986z"/>
<path style="fill:#C1261A;" d="M228.582,226.62c-22.29-6.928-44.735,9.801-44.71,32.953c0.056,55.839,69.052,85.527,69.052,85.527
	s4.078-1.767,10.241-5.235C192.749,300.401,191.454,238.223,228.582,226.62z"/>
<path style="fill:#EA473B;" d="M36.146,449.294c-9.568,0-17.325-7.756-17.325-17.325v-189.96c0-9.567,7.756-17.324,17.325-17.324
	c9.567,0,17.324,7.756,17.324,17.324V431.97C53.469,441.538,45.713,449.294,36.146,449.294z"/>
<path style="fill:#C1261A;" d="M36.145,431.969v-189.96c0-6.408,3.489-11.99,8.662-14.987c-11.527-6.679-25.986,1.665-25.986,14.987
	V431.97c0,13.327,14.46,21.666,25.986,14.988C39.634,443.96,36.145,438.378,36.145,431.969z"/>
<path style="fill:#EA473B;" d="M460.012,261.569c0,4.844,0,166.315,0,170.401c0,9.568,7.756,17.325,17.325,17.325
	c9.567,0,17.324-7.756,17.324-17.325c0-6.47,0-148.771,0-155.228v-15.173H460.012z"/>
<path style="fill:#C1261A;" d="M477.336,431.969c0-4.264,0-165.616,0-170.401h-17.324c0,4.844,0,166.315,0,170.401
	c0,13.327,14.46,21.666,25.986,14.988C480.825,443.96,477.336,438.378,477.336,431.969z"/>
<path style="fill:#DDDDDD;" d="M477.056,73.522c-13.925,10.991-32.324,32.151-32.324,67.236c0,56.443,15.873,73.655,15.873,104.33
	h31.745V83.637C492.351,61.692,477.268,73.356,477.056,73.522z"/>
<path style="fill:#BABABA;" d="M491.981,78.333c-2.317-14.563-14.732-4.961-14.924-4.811
	c-13.925,10.991-32.324,32.151-32.324,67.236c0,56.443,15.873,73.655,15.873,104.33h20.528c0-30.675-15.873-47.886-15.873-104.33
	C465.26,110.231,479.189,90.251,491.981,78.333z"/>
<path style="fill:#F75D59;" d="M494.66,276.657h-34.648c-9.567,0-17.325-7.756-17.325-17.325c0-9.567,7.757-17.324,17.325-17.324
	h34.648c9.568,0,17.325,7.756,17.325,17.324C511.985,268.901,504.229,276.657,494.66,276.657z"/>
<path style="fill:#EA473B;" d="M494.66,259.332h-34.648c-6.409,0-11.991-3.489-14.988-8.662c-1.477,2.551-2.337,5.503-2.337,8.662
	c0,9.568,7.757,17.325,17.325,17.325h34.648c13.313,0,21.671-14.447,14.988-25.987C506.651,255.843,501.069,259.332,494.66,259.332z
	"/>
<path style="fill:#BABABA;" d="M15.663,129.455c-0.384-1.026-0.257,2.557-0.257-57.149c0-4.251-3.447-7.698-7.698-7.698
	S0.01,68.055,0.01,72.306c0,60.374-0.071,56.414,0.165,58.265c1.526,3.703,4.488,6.657,8.194,8.176h7.294V129.455z"/>
<g>
</g>
<g>
</g>
<g>
</g>
<g>
</g>
<g>
</g>
<g>
</g>
<g>
</g>
<g>
</g>
<g>
</g>
<g>
</g>
<g>
</g>
<g>
</g>
<g>
</g>
<g>
</g>
<g>
</g>
</svg>
